<svg width="28" height="34" viewBox="0 0 28 34" fill="none" xmlns="http://www.w3.org/2000/svg">
    <path id="Cart/account" fill="currentColor" d="M24.0001 6.99999H20.6667C20.6667 3.31666 17.6834 0.333328 14.0001 0.333328C10.3167 0.333328 7.33341 3.31666 7.33341 6.99999H4.00008C2.16675 6.99999 0.666748 8.49999 0.666748 10.3333V30.3333C0.666748 32.1667 2.16675 33.6667 4.00008 33.6667H24.0001C25.8334 33.6667 27.3334 32.1667 27.3334 30.3333V10.3333C27.3334 8.49999 25.8334 6.99999 24.0001 6.99999ZM10.6667 13.6667C10.6667 14.5833 9.91675 15.3333 9.00008 15.3333C8.08341 15.3333 7.33341 14.5833 7.33341 13.6667V10.3333H10.6667V13.6667ZM14.0001 3.66666C15.8334 3.66666 17.3334 5.16666 17.3334 6.99999H10.6667C10.6667 5.16666 12.1667 3.66666 14.0001 3.66666ZM20.6667 13.6667C20.6667 14.5833 19.9167 15.3333 19.0001 15.3333C18.0834 15.3333 17.3334 14.5833 17.3334 13.6667V10.3333H20.6667V13.6667Z"/>
</svg>
